# xmcd CD database file
#
# Track frame offsets:
#	150
#	118180
#	213336
#	263061
#
# Disc length: 4153 seconds
#
# Revision: 0
# Processed by: cddbd v1.5.2PL0 Copyright (c) Steve Scherf et al.
# Submitted via: jetAudio 7
#
DISCID=35103704
DTITLE=Salar Aghili - Suite Symphony Of Revolution
DYEAR=1900
DGENRE=Opera
TTITLE0=Tolu,e Fajr
TTITLE1=Hejran E Aftab , Tadavom E Nour
TTITLE2=Sazandegi
TTITLE3=Be Sooye IRAN E 1404
EXTD=
EXTT0=
EXTT1=
EXTT2=
EXTT3=
PLAYORDER=
